<?xml version="1.0" encoding="utf-8"?>
<!-- Generator: Adobe Illustrator 25.0.0, SVG Export Plug-In . SVG Version: 6.00 Build 0)  -->
<svg version="1.1" id="Layer_1" xmlns="http://www.w3.org/2000/svg" xmlns:xlink="http://www.w3.org/1999/xlink" x="0px" y="0px"
	 viewBox="0 0 32 32" style="enable-background:new 0 0 32 32;" xml:space="preserve">
<style type="text/css">
	.st0{fill:#FFFFFF;}
	.st1{fill:#1C3664;}
</style>
<path class="st0" d="M15.9,1.4C7.9,1.5,1.4,8,1.4,16.1S8,30.6,16.1,30.6c8,0,14.5-6.6,14.5-14.6C30.5,7.9,24,1.4,15.9,1.4
	C15.9,1.4,15.9,1.4,15.9,1.4"/>
<path class="st1" d="M4.4,17.3v-1.1L15,11.3l0,1.1l-9.3,4.3L15,21l0,1.1L4.4,17.3z"/>
<path class="st1" d="M21.6,7.6h1.1l4.8,9.4l-1.2,0l-4.2-8.1L18.1,17l-1.2,0L21.6,7.6z"/>
</svg>
